<svg cache-id="3e9ad5e1699247c093ffd1aae939e19c" id="eGsHj9IRmYr1" xmlns="http://www.w3.org/2000/svg" xmlns:xlink="http://www.w3.org/1999/xlink" viewBox="0 0 379.7 333.3" shape-rendering="geometricPrecision" text-rendering="geometricPrecision"><style><![CDATA[#eGsHj9IRmYr4_ts {animation: eGsHj9IRmYr4_ts__ts 6000ms linear infinite normal forwards}@keyframes eGsHj9IRmYr4_ts__ts { 0% {transform: translate(9.04px,261.76px) scale(0.319255,0.319255)} 25% {transform: translate(9.04px,261.76px) scale(0.319255,0.319255)} 33.333333% {transform: translate(9.04px,261.76px) scale(1,1)} 78.333333% {transform: translate(9.04px,261.76px) scale(1,1)} 90% {transform: translate(9.04px,261.76px) scale(0.319255,0.319255)} 100% {transform: translate(9.04px,261.76px) scale(0.319255,0.319255)}} #eGsHj9IRmYr4 {animation: eGsHj9IRmYr4_c_o 6000ms linear infinite normal forwards}@keyframes eGsHj9IRmYr4_c_o { 0% {opacity: 0} 25% {opacity: 0} 30% {opacity: 1} 78.333333% {opacity: 1} 85% {opacity: 0} 100% {opacity: 0}} #eGsHj9IRmYr19_ts {animation: eGsHj9IRmYr19_ts__ts 6000ms linear infinite normal forwards}@keyframes eGsHj9IRmYr19_ts__ts { 0% {transform: translate(341.898605px,239.772499px) scale(0.5,0.5)} 18.333333% {transform: translate(341.898605px,239.772499px) scale(0.5,0.5)} 25% {transform: translate(341.898605px,239.772499px) scale(1,1)} 81.666667% {transform: translate(341.898605px,239.772499px) scale(1,1)} 88.333333% {transform: translate(341.898605px,239.772499px) scale(0.5,0.5)} 100% {transform: translate(341.898605px,239.772499px) scale(0.5,0.5)}} #eGsHj9IRmYr19 {animation: eGsHj9IRmYr19_c_o 6000ms linear infinite normal forwards}@keyframes eGsHj9IRmYr19_c_o { 0% {opacity: 0} 18.333333% {opacity: 0} 25% {opacity: 1} 81.666667% {opacity: 1} 88.333333% {opacity: 0} 100% {opacity: 0}} #eGsHj9IRmYr23_to {animation: eGsHj9IRmYr23_to__to 6000ms linear infinite normal forwards}@keyframes eGsHj9IRmYr23_to__to { 0% {transform: translate(342.050003px,338.899994px)} 21.666667% {transform: translate(342.050003px,338.899994px)} 36.666667% {transform: translate(342.050003px,175.899994px)} 58.333333% {transform: translate(342.050003px,175.899994px)} 75% {transform: translate(342.050003px,338.899994px)} 100% {transform: translate(342.050003px,338.899994px)}} #eGsHj9IRmYr33_ts {animation: eGsHj9IRmYr33_ts__ts 6000ms linear infinite normal forwards}@keyframes eGsHj9IRmYr33_ts__ts { 0% {transform: translate(279.938995px,275.495499px) scale(0.5,0.5)} 11.666667% {transform: translate(279.938995px,275.495499px) scale(0.5,0.5)} 18.333333% {transform: translate(279.938995px,275.495499px) scale(1,1)} 85% {transform: translate(279.938995px,275.495499px) scale(1,1)} 91.666667% {transform: translate(279.938995px,275.495499px) scale(0.5,0.5)} 100% {transform: translate(279.938995px,275.495499px) scale(0.5,0.5)}} #eGsHj9IRmYr33 {animation: eGsHj9IRmYr33_c_o 6000ms linear infinite normal forwards}@keyframes eGsHj9IRmYr33_c_o { 0% {opacity: 0} 11.666667% {opacity: 0} 18.333333% {opacity: 1} 85% {opacity: 1} 91.666667% {opacity: 0} 100% {opacity: 0}} #eGsHj9IRmYr37_to {animation: eGsHj9IRmYr37_to__to 6000ms linear infinite normal forwards}@keyframes eGsHj9IRmYr37_to__to { 0% {transform: translate(280.049988px,362.250008px)} 15% {transform: translate(280.049988px,362.250008px)} 30% {transform: translate(280.049988px,224.250008px)} 66.666667% {transform: translate(280.049988px,224.250008px)} 83.333333% {transform: translate(280.049988px,362.250008px)} 100% {transform: translate(280.049988px,362.250008px)}} #eGsHj9IRmYr48_ts {animation: eGsHj9IRmYr48_ts__ts 6000ms linear infinite normal forwards}@keyframes eGsHj9IRmYr48_ts__ts { 0% {transform: translate(217.969612px,311.287491px) scale(0.5,0.5)} 5% {transform: translate(217.969612px,311.287491px) scale(0.5,0.5)} 11.666667% {transform: translate(217.969612px,311.287491px) scale(1,1)} 88.333333% {transform: translate(217.969612px,311.287491px) scale(1,1)} 95% {transform: translate(217.969612px,311.287491px) scale(0.5,0.5)} 100% {transform: translate(217.969612px,311.287491px) scale(0.5,0.5)}} #eGsHj9IRmYr48 {animation: eGsHj9IRmYr48_c_o 6000ms linear infinite normal forwards}@keyframes eGsHj9IRmYr48_c_o { 0% {opacity: 0} 5% {opacity: 0} 11.666667% {opacity: 1} 88.333333% {opacity: 1} 95% {opacity: 0} 100% {opacity: 0}} #eGsHj9IRmYr52_to {animation: eGsHj9IRmYr52_to__to 6000ms linear infinite normal forwards}@keyframes eGsHj9IRmYr52_to__to { 0% {transform: translate(218.049995px,380.849998px)} 8.333333% {transform: translate(218.049995px,380.849998px)} 23.333333% {transform: translate(218.049995px,276.849998px)} 73.333333% {transform: translate(218.049995px,276.849998px)} 90% {transform: translate(218.049995px,380.849998px)} 100% {transform: translate(218.049995px,380.849998px)}}]]></style><g id="eGsHj9IRmYr4_ts" transform="translate(9.04,261.76) scale(0.319255,0.319255)"><g id="eGsHj9IRmYr4" transform="translate(-9.04,-261.759999)" opacity="0"><g transform="translate(91.69 45.57)"><path d="M223,-42.4l-5.5-3.2-47.4,17.1l10.5,9.8L46.4,124.5L18.5,98.2L13,95L-91.7,206.8l12.6,11.8l5.5,3.2l91.2-97.3l26,23.9l8.2,4.8L197.6,-2.6l6,5.5l5.5,3.2L223,-42.4Z" fill="#ef724b"/><path d="M223,-42.4l-5.5-3.2-47.4,17.1l10.5,9.8L46.4,124.5L18.5,98.2L13,95L-91.7,206.8l12.6,11.8l5.5,3.2l91.2-97.3l26,23.9l8.2,4.8L197.6,-2.6l6,5.5l5.5,3.2L223,-42.4Z" opacity="0.25" fill="#fff"/><path d="M223,-42.4L209.1,6l-10.5-9.8L51.7,153.1L19.2,122.5l-92.9,99.3L-86.2,210L18.5,98.2l32.4,30.6L186.1,-15.5l-10.5-9.8L223,-42.4Z" fill="#ef724b"/><path d="M19.3,122.5l-1.8,1.9l26,23.9l8.2,4.8-32.4-30.6Z" fill="#ef724b"/><path d="M19.3,122.5l-1.8,1.9l26,23.9l8.2,4.8-32.4-30.6Z" opacity="0.2"/><path d="M180.6,-18.7l5.5,3.2-10.5-9.8-5.5-3.2l10.5,9.8Z" fill="#ef724b"/><path d="M180.6,-18.7l5.5,3.2-10.5-9.8-5.5-3.2l10.5,9.8Z" opacity="0.2"/><path d="M197.6,-2.6l1-1.1L209.1,6l-5.5-3.2-6-5.4Z" fill="#ef724b"/><path d="M197.6,-2.6l1-1.1L209.1,6l-5.5-3.2-6-5.4Z" opacity="0.2"/><path d="M-91.7,206.8l5.5,3.2l12.6,11.8-5.5-3.2-12.6-11.8Z" fill="#ef724b"/><path d="M-91.7,206.8l5.5,3.2l12.6,11.8-5.5-3.2-12.6-11.8Z" opacity="0.2"/><path d="M-51.7,173.1l70.2-72.6l32.4,28.3L18.5,98.2l-70.2,74.9Z" opacity="0.5" fill="#fff"/><path d="M112.8,62.7l74.8-78.2-10.1-9.3L223,-42.4l-47.4,17.1l10.5,9.8-73.3,78.2Z" opacity="0.5" fill="#fff"/></g></g></g><g id="eGsHj9IRmYr19_ts" transform="translate(341.898605,239.772499) scale(0.5,0.5)"><g id="eGsHj9IRmYr19" transform="translate(-341.898605,-239.772499)" opacity="0"><g transform="translate(123.979 122.36)" opacity="0.3"><path d="M213.9,139.4c-.1,0-.2,0-.3-.1l-33.1-19.1c-.2-.1-.3-.3-.3-.4c0-.2.1-.4.3-.4l41.3-23.9c.2-.1.4-.1.5,0l33.1,19.1c.2.1.3.3.2.4c0,.2-.1.3-.2.4l-41.3,23.9c0,0-.1.1-.2.1v0Zm-32-19.6l32,18.5L254.2,115l-32-18.5-40.3,23.3Z" fill="#ef724b"/></g></g></g><g mask="url(#eGsHj9IRmYr30)"><g id="eGsHj9IRmYr23_to" transform="translate(342.050003,338.899994)"><g transform="translate(-342.050003,-175.899994)"><path d="M337.9,256.4v-127.7l-24.8-14.3v127.7l24.8,14.3Z" fill="#ef724b"/><path d="M337.9,256.4v-127.7l-24.8-14.3v127.7l24.8,14.3Z" opacity="0.2"/><path d="M337.9,256.4L371,237.3v-127.6l-33.1,19.1v127.6Z" fill="#ef724b"/><path d="M371,109.7L346.2,95.4l-33.1,19.1l24.8,14.3L371,109.7Z" fill="#ef724b"/><path d="M371,109.7L346.2,95.4l-33.1,19.1l24.8,14.3L371,109.7Z" opacity="0.25" fill="#fff"/><path d="M371,109.7l-33.4,18.4-10.8-6.1-13.6-7.6l13.4,8l11,6.6c-.3,3.7-.3,67.8-.3,71.5s.2,52.1.7,55.9c.5-3.8.7-52.1.7-55.9.1-3.6,0-67.6-.3-71.2L371,109.7Z" opacity="0.3" fill="#fff"/></g></g><mask id="eGsHj9IRmYr30" mask-type="luminance"><g><polygon points="299.4,234.1 337.8,256.4 382.7,230.5 383,83.5 295,84.8" fill="#fff"/></g></mask></g><g id="eGsHj9IRmYr33_ts" transform="translate(279.938995,275.495499) scale(0.5,0.5)"><g id="eGsHj9IRmYr33" transform="translate(-279.938995,-275.495499)" opacity="0"><g transform="translate(61.989 158.183)" opacity="0.3"><path d="M213.9,139.3c-.1,0-.2,0-.3-.1l-33.1-19.1c-.2-.1-.3-.3-.3-.4c0-.2.1-.4.3-.4l41.3-23.9c.2-.1.4-.1.5,0l33.1,19.1c.2.1.3.3.3.4c0,.2-.1.3-.3.4l-41.3,23.9c0,.1-.1.1-.2.1v0Zm-32-19.6l32,18.5l40.3-23.3-32-18.5-40.3,23.3Z" fill="#ef724b"/></g></g></g><g mask="url(#eGsHj9IRmYr45)"><g id="eGsHj9IRmYr37_to" transform="translate(280.049988,362.250008)"><g transform="translate(-280.049988,-224.250008)"><path d="M275.9,292.2v-102.5l-24.8-14.3v102.6l24.8,14.2Z" fill="#ef724b"/><path d="M275.9,292.2v-102.5l-24.8-14.3v102.6l24.8,14.2Z" opacity="0.1" fill="#fff"/><path d="M275.9,292.2L309,273.1v-102.5l-33.1,19.1v102.5Z" fill="#ef724b"/><path d="M275.9,292.2L309,273.1v-102.5l-33.1,19.1v102.5Z" opacity="0.3" fill="#fff"/><path d="M309,170.6l-24.8-14.3-33.1,19.1l24.8,14.3L309,170.6Z" fill="#ef724b"/><path d="M309,170.6l-24.8-14.3-33.1,19.1l24.8,14.3L309,170.6Z" opacity="0.55" fill="#fff"/><path d="M276.4,189.9L309,170.5l-33.1,18.6c-3.6-2-7.6-4.2-11.2-6.2l-13.6-7.6l13.4,8c3.7,2.2,7.3,4.4,11,6.6-.1,3.9.2,98.3.4,102.3.3-3.9.6-98.5.5-102.3Z" opacity="0.3" fill="#fff"/></g></g><mask id="eGsHj9IRmYr45" mask-type="luminance"><g><polygon points="237.5,270.2 275.8,292.2 320.6,266.5 322,128.8 233,128.8" fill="#fff"/></g></mask></g><g id="eGsHj9IRmYr48_ts" transform="translate(217.969612,311.287491) scale(0.5,0.5)"><g id="eGsHj9IRmYr48" transform="translate(-217.969612,-311.287491)" opacity="0"><g transform="translate(0 193.975)" opacity="0.3"><path d="M213.9,139.3c-.1,0-.2,0-.3-.1l-33.1-19.1c-.2-.1-.2-.3-.2-.4c0-.2.1-.3.2-.4l41.3-23.9c.2-.1.4-.1.5,0l33.1,19.1c.2.1.3.3.2.4c0,.2-.1.3-.2.4l-41.3,23.9c0,.1-.1.1-.2.1Zm-32-19.6l32,18.5l40.3-23.3-32-18.5-40.3,23.3Z" fill="#ef724b"/></g></g></g><g mask="url(#eGsHj9IRmYr60)"><g id="eGsHj9IRmYr52_to" transform="translate(218.049995,380.849998)"><g transform="translate(-218.049995,-276.849998)"><path d="M213.9,328v-69l-24.8-14.3v69L213.9,328Z" fill="#ef724b"/><path d="M213.9,328v-69l-24.8-14.3v69L213.9,328Z" opacity="0.45"/><path d="M213.9,328L247,308.9v-69L213.9,259v69Z" fill="#ef724b"/><path d="M213.9,328L247,308.9v-69L213.9,259v69Z" opacity="0.3"/><path d="M247,239.9l-24.8-14.3-33.1,19.1L213.9,259L247,239.9Z" fill="#ef724b"/><path d="M247,239.9l-24.8-14.3-33.1,19.1L213.9,259L247,239.9Z" opacity="0.15"/><path d="M247,239.9l-33.1,18.6-11.2-6.2-13.6-7.6l13.4,8l11,6.9c0,0,0,66.1.5,68.5.5-2.3.5-68.5.5-68.5L247,239.9Z" opacity="0.3" fill="#fff"/></g></g><mask id="eGsHj9IRmYr60" mask-type="luminance"><g><polygon points="175.6,305.8 214,328.1 258.8,302.1 261.6,202.3 171.1,203.6" fill="#fff"/></g></mask></g></svg>